Coordinates
version=1
nRows=16
nColumns=30
inDegrees=yes

Units are S.I. units (second, meters, Newtons, ...)
Angles are in degrees.

endheader
time	floatyaw	floatroll	floatpitch	floatx	floaty	floatz	pro_sup_l	deviation_l	flexion_l	cmc_flexion_l	cmc_abduction_l	mp_flexion_l	ip_flexion_l	2mcp_flexion_l	2mcp_abduction_l	2pm_flexion_l	2md_flexion_l	3mcp_flexion_l	3mcp_abduction_l	3pm_flexion_l	3md_flexion_l	4mcp_flexion_l	4mcp_abduction_l	4pm_flexion_l	4md_flexion_l	5mcp_flexion_l	5mcp_abduction_l	5pm_flexion_l	5md_flexion_l
0.005000	-4.367428	-0.612882	99.545687	0.059678	-0.148881	0.077389	93.784491	10.106647	-5.518502	9.910573	27.204303	-31.369964	-52.536217	65.955679	7.178297	56.341237	48.465800	64.508983	4.126121	74.877403	51.012807	69.740473	-5.715670	93.035882	60.722051	79.324144	-4.543504	95.496508	38.928594
0.015000	-4.367428	-0.612882	99.545687	0.059776	-0.147765	0.076818	92.206599	10.032773	-6.096836	9.973589	27.586219	-31.484533	-52.810215	66.146098	7.159009	56.440420	48.656516	64.763887	4.149683	75.108151	51.325304	70.021884	-5.723276	93.360164	60.969785	79.545140	-4.554366	95.859154	38.950545
0.025000	-4.367428	-0.612882	99.545687	0.059822	-0.146048	0.076412	90.967058	10.002319	-6.752184	10.129949	27.786250	-31.580103	-53.045450	66.275731	7.161192	56.581782	48.752147	64.953557	4.167338	75.360901	51.611724	70.244508	-5.730847	93.665177	61.194105	79.721821	-4.567358	96.236903	38.940805
0.035000	-4.367428	-0.612882	99.545687	0.059864	-0.143912	0.076118	90.140158	10.073714	-7.389892	10.349203	27.815566	-31.648053	-53.215838	66.398678	7.179688	56.686122	48.725921	65.111295	4.180170	75.568822	51.835606	70.434222	-5.739561	93.897459	61.347121	79.853197	-4.585958	96.603212	38.899787
0.045000	-4.367428	-0.612882	99.545687	0.059934	-0.141700	0.075843	89.689087	10.286702	-7.910722	10.605097	27.718798	-31.681234	-53.301220	66.543634	7.202207	56.696805	48.572842	65.259442	4.191172	75.678073	51.970556	70.606524	-5.750161	94.024202	61.397076	79.934658	-4.610947	96.919375	38.840290
0.055000	-4.367428	-0.612882	99.545687	0.060036	-0.139809	0.075491	89.481885	10.644931	-8.252175	10.875575	27.551115	-31.677711	-53.293119	66.710377	7.214830	56.594698	48.322966	65.407206	4.203465	75.669069	52.011047	70.764549	-5.761720	94.047484	61.342190	79.965790	-4.640555	97.150132	38.782769
0.065000	-4.367428	-0.612882	99.545687	0.060150	-0.138548	0.075008	89.348755	11.109791	-8.409212	11.142650	27.350616	-31.643107	-53.198386	66.873655	7.207831	56.403587	48.036885	65.549232	4.218652	75.563526	51.975888	70.899345	-5.771799	94.001218	61.212464	79.952922	-4.671594	97.277442	38.749312
0.075000	-4.367428	-0.612882	99.545687	0.060236	-0.138021	0.074405	89.155260	11.611427	-8.426254	11.395255	27.119774	-31.589831	-53.038845	66.994866	7.179268	56.180531	47.784399	65.667578	4.236331	75.412730	51.901293	70.994643	-5.777938	93.932066	61.056325	79.906772	-4.700957	97.306032	38.756657
0.085000	-4.367428	-0.612882	99.545687	0.060262	-0.138115	0.073751	88.851027	12.073915	-8.369837	11.632238	26.825678	-31.532252	-52.844831	67.038976	7.134730	55.992196	47.617327	65.739080	4.254895	75.273649	51.826253	71.035161	-5.779149	93.877266	60.918854	79.837967	-4.726874	97.259474	38.809729
0.095000	-4.367428	-0.612882	99.545687	0.060219	-0.138577	0.073138	88.468127	12.442778	-8.299452	11.860615	26.416637	-31.479746	-52.643604	66.989894	7.083825	55.887635	47.550823	65.746120	4.272848	75.186178	51.778122	71.014255	-5.776279	93.852927	60.824198	79.753612	-4.749618	97.170697	38.899343
0.105000	-4.367428	-0.612882	99.545687	0.060121	-0.139135	0.072637	88.077940	12.701563	-8.249721	12.088844	25.843352	-31.432027	-52.448468	66.856128	7.035709	55.881481	47.562611	65.685083	4.289714	75.162135	51.765896	70.936684	-5.771240	93.855953	60.771290	79.656262	-4.771444	97.071663	39.007070
0.115000	-4.367428	-0.612882	99.545687	0.059998	-0.139601	0.072268	87.740584	12.871277	-8.227566	12.320532	25.074691	-31.380479	-52.256280	66.663594	6.996011	55.954803	47.609220	65.567571	4.306130	75.188209	51.782989	70.815514	-5.765959	93.873151	60.742381	79.544598	-4.795715	96.985234	39.115445
0.125000	-4.367428	-0.612882	99.545687	0.059879	-0.139907	0.071999	87.478053	12.995972	-8.220829	12.553578	24.106237	-31.315184	-52.056067	66.440947	6.966071	56.069960	47.648952	65.414243	4.323339	75.237784	51.815526	70.665774	-5.761740	93.890069	60.716314	79.414706	-4.825472	96.920845	39.216852
0.135000	-4.367428	-0.612882	99.545687	0.059780	-0.140080	0.071771	87.278920	13.123071	-8.211777	12.784004	22.964042	-31.232740	-51.842450	66.207174	6.943970	56.189194	47.659055	65.245633	4.342486	75.284235	51.850592	70.498807	-5.759164	93.896338	60.677989	79.261650	-4.862054	96.874825	39.314874
0.145000	-4.367428	-0.612882	99.545687	0.059702	-0.140192	0.071523	87.120307	13.286708	-8.188698	13.009500	21.703824	-31.139013	-51.622990	65.968140	6.926332	56.287491	47.640195	65.075237	4.364120	75.310152	51.880912	70.320059	-5.758252	93.887840	60.620838	79.081635	-4.904452	96.834872	39.417711
0.155000	-4.367428	-0.612882	99.545687	0.059634	-0.140303	0.071222	86.987082	13.499059	-8.150846	13.229332	20.402743	-31.044974	-51.413935	65.721593	6.910026	56.356089	47.609539	64.907687	4.388037	75.310531	51.905307	70.130552	-5.758663	93.866577	60.544780	78.874463	-4.949754	96.786689	39.529628
